<?xml version="1.0" encoding="UTF-8"?>
<svg xmlns="http://www.w3.org/2000/svg" xmlns:xlink="http://www.w3.org/1999/xlink" xmlns:data="http://www.data.org/1/data" width="1300" height="1050" version="1.1" viewBox="0 0 1300 1050">
  <defs>
    <radialGradient id="courtFill" cx="1100" cy="-350" r="150%" spreadMethod="pad" gradientUnits="userSpaceOnUse">
      <stop offset="0%" stop-color="#ffe166"/>
      <stop offset="100%" stop-color="#d69e48"/>
    </radialGradient>
    <mask id="xarea_1" maskContentUnits="userSpaceOnUse">
      <ellipse cx="0" cy="0" rx="90" ry="300" fill="white" transform="translate(790, 240)"/>
      <ellipse cx="0" cy="0" rx="90" ry="330" fill="white" transform="translate(610, 240) rotate(28)"/>
    </mask>
  </defs>
  <g>
    <rect x="0" y="0" width="1300" height="1050" style="stroke: none; fill: #bdb5b7;"/>
    <rect x="200" y="-350" width="900" height="1200" clip-path="inset(350px 0 0 0)" style="fill: url('#courtFill'); stroke: #0000b2; stroke-width: 5;"/>
    <line x1="200" y1="250" x2="1100" y2="250" style="fill: none; stroke: #0000b2; stroke-width: 5;"/>
    <line x1="200" y1="550" x2="1100" y2="550" style="fill: none; stroke: #0000b2; stroke-width: 5;"/>
    <line x1="185" y1="550" x2="35" y2="550" style="fill: none; stroke: #0000b2; stroke-width: 5; stroke-dasharray: 15 15;"/>
    <line x1="1115" y1="550" x2="1265" y2="550" style="fill: none; stroke: #0000b2; stroke-width: 5; stroke-dasharray: 15 15;"/>
  </g>
  <g class="actors">
    <g transform="translate(980 150)">
      <ellipse cx="0" cy="0" rx="25" ry="25" style="stroke: none; fill: #ffff00;"/>
      <path d="M 775 -75.5 C 758.333 -92.167 750 -111.75 771.667 -123 C 763.333 -114.667 766.667 -95.5 790 -77 L 775 -75.512 L 790 -77 Q 782.5 -73.833 775 -75.512" transform="translate(-780 100)" style="stroke: none; fill: #0000ff;"/>
      <path d="M 800.661 -85.833 C 788.161 -98.333 783.994 -110.833 781.661 -118.333 Q 798.328 -106.429 804.994 -99.167 Q 804.828 -92 800.647 -85.833 Z" transform="translate(-780 100)" style="stroke: none; fill: #0000ff;"/>
    </g>
    <g class="player attack" transform="translate(1044 90) rotate(200)">
      <ellipse cx="0" cy="0" rx="50" ry="25" style="stroke: none; fill: #b22222;"/>
      <g class="prepare-block">
        <line x1="-37.5" y1="-25" x2="-22.5" y2="-25" style="fill: none; stroke: #b22222; stroke-width: 12.5; stroke-linecap: round; stroke-linejoin: round;"/>
        <line x1="22.5" y1="-25" x2="37.5" y2="-25" style="fill: none; stroke: #b22222; stroke-width: 12.5; stroke-linecap: round; stroke-linejoin: round;"/>
      </g>
      <g class="block">
        <line x1="-41" y1="-25" x2="41" y2="-25" style="fill: none; stroke: #b22222; stroke-width: 12.5; stroke-linecap: round; stroke-linejoin: round;"/>
      </g>
      <g class="prepare-defense">
        <line x1="-37.5" y1="0" x2="-62.5" y2="-25" style="fill: none; stroke: #b22222; stroke-width: 17; stroke-linecap: round; stroke-linejoin: round;"/>
        <line x1="-62.5" y1="-25" x2="-62.5" y2="-50" style="fill: none; stroke: #b22222; stroke-width: 17; stroke-linecap: round; stroke-linejoin: round;"/>
        <line x1="37.5" y1="0" x2="62.5" y2="-25" style="fill: none; stroke: #b22222; stroke-width: 17; stroke-linecap: round; stroke-linejoin: round;"/>
        <line x1="62.5" y1="-25" x2="62.5" y2="-50" style="fill: none; stroke: #b22222; stroke-width: 17; stroke-linecap: round; stroke-linejoin: round;"/>
      </g>
      <g class="defense">
        <line x1="-41" y1="0" x2="0" y2="-75" style="fill: none; stroke: #b22222; stroke-width: 17; stroke-linecap: round; stroke-linejoin: round;"/>
        <line x1="41" y1="0" x2="0" y2="-75" style="fill: none; stroke: #b22222; stroke-width: 17; stroke-linecap: round; stroke-linejoin: round;"/>
      </g>
      <g class="attack">
        <line x1="37.5" y1="0" x2="37.5" y2="-50" style="fill: none; stroke: #b22222; stroke-width: 17; stroke-linecap: round; stroke-linejoin: round;"/>
      </g>
      <g class="attack-left">
        <line x1="-37.5" y1="0" x2="-37.5" y2="-50" style="fill: none; stroke: #b22222; stroke-width: 17; stroke-linecap: round; stroke-linejoin: round;"/>
      </g>
      <g class="set">
        <line x1="-37.5" y1="0" x2="-20" y2="-25" style="fill: none; stroke: #b22222; stroke-width: 17; stroke-linecap: round; stroke-linejoin: round;"/>
        <line x1="37.5" y1="0" x2="20" y2="-25" style="fill: none; stroke: #b22222; stroke-width: 17; stroke-linecap: round; stroke-linejoin: round;"/>
      </g>
    </g>
    <rect x="0" y="0" width="900" height="600" transform="translate(200 250)" style="stroke: none; fill: #006400; fill-opacity: 0.39; mask: url(#xarea_1);"/>
    <g class="player prepare-defense" transform="translate(400 650) rotate(40)">
      <ellipse cx="0" cy="0" rx="50" ry="25" style="stroke: none; fill: #b22222;"/>
      <g class="prepare-block">
        <line x1="-37.5" y1="-25" x2="-22.5" y2="-25" style="fill: none; stroke: #b22222; stroke-width: 12.5; stroke-linecap: round; stroke-linejoin: round;"/>
        <line x1="22.5" y1="-25" x2="37.5" y2="-25" style="fill: none; stroke: #b22222; stroke-width: 12.5; stroke-linecap: round; stroke-linejoin: round;"/>
      </g>
      <g class="block">
        <line x1="-41" y1="-25" x2="41" y2="-25" style="fill: none; stroke: #b22222; stroke-width: 12.5; stroke-linecap: round; stroke-linejoin: round;"/>
      </g>
      <g class="prepare-defense">
        <line x1="-37.5" y1="0" x2="-62.5" y2="-25" style="fill: none; stroke: #b22222; stroke-width: 17; stroke-linecap: round; stroke-linejoin: round;"/>
        <line x1="-62.5" y1="-25" x2="-62.5" y2="-50" style="fill: none; stroke: #b22222; stroke-width: 17; stroke-linecap: round; stroke-linejoin: round;"/>
        <line x1="37.5" y1="0" x2="62.5" y2="-25" style="fill: none; stroke: #b22222; stroke-width: 17; stroke-linecap: round; stroke-linejoin: round;"/>
        <line x1="62.5" y1="-25" x2="62.5" y2="-50" style="fill: none; stroke: #b22222; stroke-width: 17; stroke-linecap: round; stroke-linejoin: round;"/>
      </g>
      <g class="defense">
        <line x1="-41" y1="0" x2="0" y2="-75" style="fill: none; stroke: #b22222; stroke-width: 17; stroke-linecap: round; stroke-linejoin: round;"/>
        <line x1="41" y1="0" x2="0" y2="-75" style="fill: none; stroke: #b22222; stroke-width: 17; stroke-linecap: round; stroke-linejoin: round;"/>
      </g>
      <g class="attack">
        <line x1="37.5" y1="0" x2="37.5" y2="-50" style="fill: none; stroke: #b22222; stroke-width: 17; stroke-linecap: round; stroke-linejoin: round;"/>
      </g>
      <g class="attack-left">
        <line x1="-37.5" y1="0" x2="-37.5" y2="-50" style="fill: none; stroke: #b22222; stroke-width: 17; stroke-linecap: round; stroke-linejoin: round;"/>
      </g>
      <g class="set">
        <line x1="-37.5" y1="0" x2="-20" y2="-25" style="fill: none; stroke: #b22222; stroke-width: 17; stroke-linecap: round; stroke-linejoin: round;"/>
        <line x1="37.5" y1="0" x2="20" y2="-25" style="fill: none; stroke: #b22222; stroke-width: 17; stroke-linecap: round; stroke-linejoin: round;"/>
      </g>
      <text x="0" y="0" dy="0.35em" style="stroke: none; font-family: Arial; fill: #ffff00; font-size: 45px; text-anchor: middle;">2</text>
    </g>
    <g class="player block" transform="translate(900 275)">
      <ellipse cx="0" cy="0" rx="50" ry="25" style="stroke: none; fill: #b22222;"/>
      <g class="prepare-block">
        <line x1="-37.5" y1="-25" x2="-22.5" y2="-25" style="fill: none; stroke: #b22222; stroke-width: 12.5; stroke-linecap: round; stroke-linejoin: round;"/>
        <line x1="22.5" y1="-25" x2="37.5" y2="-25" style="fill: none; stroke: #b22222; stroke-width: 12.5; stroke-linecap: round; stroke-linejoin: round;"/>
      </g>
      <g class="block">
        <line x1="-41" y1="-25" x2="41" y2="-25" style="fill: none; stroke: #b22222; stroke-width: 12.5; stroke-linecap: round; stroke-linejoin: round;"/>
      </g>
      <g class="prepare-defense">
        <line x1="-37.5" y1="0" x2="-62.5" y2="-25" style="fill: none; stroke: #b22222; stroke-width: 17; stroke-linecap: round; stroke-linejoin: round;"/>
        <line x1="-62.5" y1="-25" x2="-62.5" y2="-50" style="fill: none; stroke: #b22222; stroke-width: 17; stroke-linecap: round; stroke-linejoin: round;"/>
        <line x1="37.5" y1="0" x2="62.5" y2="-25" style="fill: none; stroke: #b22222; stroke-width: 17; stroke-linecap: round; stroke-linejoin: round;"/>
        <line x1="62.5" y1="-25" x2="62.5" y2="-50" style="fill: none; stroke: #b22222; stroke-width: 17; stroke-linecap: round; stroke-linejoin: round;"/>
      </g>
      <g class="defense">
        <line x1="-41" y1="0" x2="0" y2="-75" style="fill: none; stroke: #b22222; stroke-width: 17; stroke-linecap: round; stroke-linejoin: round;"/>
        <line x1="41" y1="0" x2="0" y2="-75" style="fill: none; stroke: #b22222; stroke-width: 17; stroke-linecap: round; stroke-linejoin: round;"/>
      </g>
      <g class="attack">
        <line x1="37.5" y1="0" x2="37.5" y2="-50" style="fill: none; stroke: #b22222; stroke-width: 17; stroke-linecap: round; stroke-linejoin: round;"/>
      </g>
      <g class="attack-left">
        <line x1="-37.5" y1="0" x2="-37.5" y2="-50" style="fill: none; stroke: #b22222; stroke-width: 17; stroke-linecap: round; stroke-linejoin: round;"/>
      </g>
      <g class="set">
        <line x1="-37.5" y1="0" x2="-20" y2="-25" style="fill: none; stroke: #b22222; stroke-width: 17; stroke-linecap: round; stroke-linejoin: round;"/>
        <line x1="37.5" y1="0" x2="20" y2="-25" style="fill: none; stroke: #b22222; stroke-width: 17; stroke-linecap: round; stroke-linejoin: round;"/>
      </g>
      <text x="0" y="0" dy="0.35em" style="stroke: none; font-family: Arial; fill: #ffff00; font-size: 45px; text-anchor: middle;">3</text>
    </g>
    <g class="player block" transform="translate(1000 274) rotate(-3)">
      <ellipse cx="0" cy="0" rx="50" ry="25" style="stroke: none; fill: #b22222;"/>
      <g class="prepare-block">
        <line x1="-37.5" y1="-25" x2="-22.5" y2="-25" style="fill: none; stroke: #b22222; stroke-width: 12.5; stroke-linecap: round; stroke-linejoin: round;"/>
        <line x1="22.5" y1="-25" x2="37.5" y2="-25" style="fill: none; stroke: #b22222; stroke-width: 12.5; stroke-linecap: round; stroke-linejoin: round;"/>
      </g>
      <g class="block">
        <line x1="-41" y1="-25" x2="41" y2="-25" style="fill: none; stroke: #b22222; stroke-width: 12.5; stroke-linecap: round; stroke-linejoin: round;"/>
      </g>
      <g class="prepare-defense">
        <line x1="-37.5" y1="0" x2="-62.5" y2="-25" style="fill: none; stroke: #b22222; stroke-width: 17; stroke-linecap: round; stroke-linejoin: round;"/>
        <line x1="-62.5" y1="-25" x2="-62.5" y2="-50" style="fill: none; stroke: #b22222; stroke-width: 17; stroke-linecap: round; stroke-linejoin: round;"/>
        <line x1="37.5" y1="0" x2="62.5" y2="-25" style="fill: none; stroke: #b22222; stroke-width: 17; stroke-linecap: round; stroke-linejoin: round;"/>
        <line x1="62.5" y1="-25" x2="62.5" y2="-50" style="fill: none; stroke: #b22222; stroke-width: 17; stroke-linecap: round; stroke-linejoin: round;"/>
      </g>
      <g class="defense">
        <line x1="-41" y1="0" x2="0" y2="-75" style="fill: none; stroke: #b22222; stroke-width: 17; stroke-linecap: round; stroke-linejoin: round;"/>
        <line x1="41" y1="0" x2="0" y2="-75" style="fill: none; stroke: #b22222; stroke-width: 17; stroke-linecap: round; stroke-linejoin: round;"/>
      </g>
      <g class="attack">
        <line x1="37.5" y1="0" x2="37.5" y2="-50" style="fill: none; stroke: #b22222; stroke-width: 17; stroke-linecap: round; stroke-linejoin: round;"/>
      </g>
      <g class="attack-left">
        <line x1="-37.5" y1="0" x2="-37.5" y2="-50" style="fill: none; stroke: #b22222; stroke-width: 17; stroke-linecap: round; stroke-linejoin: round;"/>
      </g>
      <g class="set">
        <line x1="-37.5" y1="0" x2="-20" y2="-25" style="fill: none; stroke: #b22222; stroke-width: 17; stroke-linecap: round; stroke-linejoin: round;"/>
        <line x1="37.5" y1="0" x2="20" y2="-25" style="fill: none; stroke: #b22222; stroke-width: 17; stroke-linecap: round; stroke-linejoin: round;"/>
      </g>
      <text x="0" y="0" dy="0.35em" style="stroke: none; font-family: Arial; fill: #ffff00; font-size: 45px; text-anchor: middle;">4</text>
    </g>
    <g class="player prepare-defense" transform="translate(860 700) rotate(5)">
      <ellipse cx="0" cy="0" rx="50" ry="25" style="stroke: none; fill: #0000ff;"/>
      <g class="prepare-block">
        <line x1="-37.5" y1="-25" x2="-22.5" y2="-25" style="fill: none; stroke: #0000ff; stroke-width: 12.5; stroke-linecap: round; stroke-linejoin: round;"/>
        <line x1="22.5" y1="-25" x2="37.5" y2="-25" style="fill: none; stroke: #0000ff; stroke-width: 12.5; stroke-linecap: round; stroke-linejoin: round;"/>
      </g>
      <g class="block">
        <line x1="-41" y1="-25" x2="41" y2="-25" style="fill: none; stroke: #0000ff; stroke-width: 12.5; stroke-linecap: round; stroke-linejoin: round;"/>
      </g>
      <g class="prepare-defense">
        <line x1="-37.5" y1="0" x2="-62.5" y2="-25" style="fill: none; stroke: #0000ff; stroke-width: 17; stroke-linecap: round; stroke-linejoin: round;"/>
        <line x1="-62.5" y1="-25" x2="-62.5" y2="-50" style="fill: none; stroke: #0000ff; stroke-width: 17; stroke-linecap: round; stroke-linejoin: round;"/>
        <line x1="37.5" y1="0" x2="62.5" y2="-25" style="fill: none; stroke: #0000ff; stroke-width: 17; stroke-linecap: round; stroke-linejoin: round;"/>
        <line x1="62.5" y1="-25" x2="62.5" y2="-50" style="fill: none; stroke: #0000ff; stroke-width: 17; stroke-linecap: round; stroke-linejoin: round;"/>
      </g>
      <g class="defense">
        <line x1="-41" y1="0" x2="0" y2="-75" style="fill: none; stroke: #0000ff; stroke-width: 17; stroke-linecap: round; stroke-linejoin: round;"/>
        <line x1="41" y1="0" x2="0" y2="-75" style="fill: none; stroke: #0000ff; stroke-width: 17; stroke-linecap: round; stroke-linejoin: round;"/>
      </g>
      <g class="attack">
        <line x1="37.5" y1="0" x2="37.5" y2="-50" style="fill: none; stroke: #0000ff; stroke-width: 17; stroke-linecap: round; stroke-linejoin: round;"/>
      </g>
      <g class="attack-left">
        <line x1="-37.5" y1="0" x2="-37.5" y2="-50" style="fill: none; stroke: #0000ff; stroke-width: 17; stroke-linecap: round; stroke-linejoin: round;"/>
      </g>
      <g class="set">
        <line x1="-37.5" y1="0" x2="-20" y2="-25" style="fill: none; stroke: #0000ff; stroke-width: 17; stroke-linecap: round; stroke-linejoin: round;"/>
        <line x1="37.5" y1="0" x2="20" y2="-25" style="fill: none; stroke: #0000ff; stroke-width: 17; stroke-linecap: round; stroke-linejoin: round;"/>
      </g>
      <text x="0" y="0" dy="0.35em" style="stroke: none; font-family: Arial; fill: #ffff00; font-size: 45px; text-anchor: middle;">H</text>
    </g>
  </g>
  <style>
g.player > g {
  display: none;
}
g.player.attack > g.attack {
  display: block;
}
g.player.attack-left > g.attack-left {
  display: block;
}
g.player.prepare-block > g.prepare-block {
  display: block;
}
g.player.block > g.block {
  display: block;
}
g.player.prepare-defense > g.prepare-defense {
  display: block;
}
g.player.defense > g.defense {
  display: block;
}
g.player.set > g.set {
  display: block;
}

  </style>
<script>//<![CDATA[
(function(){
/**
 * Handles the context menu trigger to block it.
 * @param {Event} event The event data.
 * @returns {Boolean} true
 */
function onContextMenu(event) {
  event.preventDefault();
  return true;
}

// set a context menu handler
document.addEventListener('contextmenu', onContextMenu);
}());
//]]></script>
</svg>

