<?xml version="1.0" encoding="UTF-8"?>
<svg xmlns="http://www.w3.org/2000/svg" xmlns:xlink="http://www.w3.org/1999/xlink" xmlns:data="http://www.data.org/1/data" width="1000" height="900" version="1.1" viewBox="0 0 1000 900">
  <defs>
    <radialGradient id="courtFill" cx="800" cy="-500" r="150%" spreadMethod="pad" gradientUnits="userSpaceOnUse">
      <stop offset="0%" stop-color="#ffe166"/>
      <stop offset="100%" stop-color="#d69e48"/>
    </radialGradient>
  </defs>
  <g>
    <rect x="0" y="0" width="1000" height="900" style="stroke: none; fill: #bdb5b7;"/>
    <rect x="200" y="-500" width="600" height="1200" clip-path="inset(500px 0 0 0)" style="fill: url('#courtFill'); stroke: #0000b2; stroke-width: 5;"/>
    <line x1="200" y1="100" x2="800" y2="100" style="fill: none; stroke: #0000b2; stroke-width: 5;"/>
    <line x1="200" y1="400" x2="800" y2="400" style="fill: none; stroke: #0000b2; stroke-width: 5;"/>
    <line x1="185" y1="400" x2="35" y2="400" style="fill: none; stroke: #0000b2; stroke-width: 5; stroke-dasharray: 15 15;"/>
    <line x1="815" y1="400" x2="965" y2="400" style="fill: none; stroke: #0000b2; stroke-width: 5; stroke-dasharray: 15 15;"/>
  </g>
  <g class="actors">
    <ellipse cx="0" cy="0" rx="15" ry="15" transform="translate(410 700)" style="stroke: #ff0000; stroke-width: 7.5; fill: #ffffff;"/>
    <ellipse cx="0" cy="0" rx="15" ry="15" transform="translate(590 700)" style="stroke: #ff0000; stroke-width: 7.5; fill: #ffffff;"/>
    <g class="player prepare-defense" transform="translate(325 450) rotate(20)">
      <ellipse cx="0" cy="0" rx="50" ry="25" style="stroke: none; fill: #b22222;"/>
      <g class="prepare-block">
        <line x1="-37.5" y1="-25" x2="-22.5" y2="-25" style="fill: none; stroke: #b22222; stroke-width: 12.5; stroke-linecap: round; stroke-linejoin: round;"/>
        <line x1="22.5" y1="-25" x2="37.5" y2="-25" style="fill: none; stroke: #b22222; stroke-width: 12.5; stroke-linecap: round; stroke-linejoin: round;"/>
      </g>
      <g class="block">
        <line x1="-41" y1="-25" x2="41" y2="-25" style="fill: none; stroke: #b22222; stroke-width: 12.5; stroke-linecap: round; stroke-linejoin: round;"/>
      </g>
      <g class="prepare-defense">
        <line x1="-37.5" y1="0" x2="-62.5" y2="-25" style="fill: none; stroke: #b22222; stroke-width: 17; stroke-linecap: round; stroke-linejoin: round;"/>
        <line x1="-62.5" y1="-25" x2="-62.5" y2="-50" style="fill: none; stroke: #b22222; stroke-width: 17; stroke-linecap: round; stroke-linejoin: round;"/>
        <line x1="37.5" y1="0" x2="62.5" y2="-25" style="fill: none; stroke: #b22222; stroke-width: 17; stroke-linecap: round; stroke-linejoin: round;"/>
        <line x1="62.5" y1="-25" x2="62.5" y2="-50" style="fill: none; stroke: #b22222; stroke-width: 17; stroke-linecap: round; stroke-linejoin: round;"/>
      </g>
      <g class="defense">
        <line x1="-41" y1="0" x2="0" y2="-75" style="fill: none; stroke: #b22222; stroke-width: 17; stroke-linecap: round; stroke-linejoin: round;"/>
        <line x1="41" y1="0" x2="0" y2="-75" style="fill: none; stroke: #b22222; stroke-width: 17; stroke-linecap: round; stroke-linejoin: round;"/>
      </g>
      <g class="attack">
        <line x1="37.5" y1="0" x2="37.5" y2="-50" style="fill: none; stroke: #b22222; stroke-width: 17; stroke-linecap: round; stroke-linejoin: round;"/>
      </g>
      <g class="attack-left">
        <line x1="-37.5" y1="0" x2="-37.5" y2="-50" style="fill: none; stroke: #b22222; stroke-width: 17; stroke-linecap: round; stroke-linejoin: round;"/>
      </g>
      <g class="set">
        <line x1="-37.5" y1="0" x2="-20" y2="-25" style="fill: none; stroke: #b22222; stroke-width: 17; stroke-linecap: round; stroke-linejoin: round;"/>
        <line x1="37.5" y1="0" x2="20" y2="-25" style="fill: none; stroke: #b22222; stroke-width: 17; stroke-linecap: round; stroke-linejoin: round;"/>
      </g>
      <text x="0" y="0" dy="0.35em" style="stroke: none; font-family: Arial; fill: #ffff00; font-size: 45px; text-anchor: middle;">4</text>
    </g>
    <g class="move">
      <g transform="translate(463 215)">
        <line x1="0" y1="0" x2="200" y2="100" style="stroke: #000000; stroke-width: 1; stroke-linecap: round; stroke-linejoin: round; stroke-dasharray: 2 4;"/>
        <polyline points="183.851,76.397 200,100 171.428,101.242" style="stroke: #000000; stroke-width: 1; stroke-linecap: round; stroke-linejoin: round; stroke-dasharray: 2 4; fill: none;"/>
      </g>
    </g>
    <ellipse cx="0" cy="0" rx="0" ry="0" id="ellipse_1" transform="translate(463 215)" style="stroke: none; fill: #ffffff;"/>
    <path d="M 263 115 C 163 165 -37 315 113 515" transform="translate(200 100)" style="stroke: #111111; stroke-width: 1.1; stroke-dasharray: 2 3; fill: none;"/>
    <g transform="translate(173 415)">
      <polyline points="137.042,171.554 140,200 114.285,187.484" style="stroke: #111111; stroke-width: 1.1; stroke-dasharray: 2 3; fill: none;"/>
    </g>
    <g transform="translate(463 215)">
      <ellipse cx="0" cy="0" rx="25" ry="25" style="stroke: none; fill: #ffff00;"/>
      <path d="M 258 139.5 C 241.333 122.833 233 103.25 254.667 92 C 246.333 100.333 249.667 119.5 273 138 L 258 139.488 L 273 138 Q 265.5 141.167 258 139.488" transform="translate(-263 -115)" style="stroke: none; fill: #0000ff;"/>
      <path d="M 283.661 129.167 C 271.161 116.667 266.994 104.167 264.661 96.667 Q 281.328 108.571 287.994 115.833 Q 287.828 123 283.647 129.167 Z" transform="translate(-263 -115)" style="stroke: none; fill: #0000ff;"/>
    </g>
    <g class="player attack" transform="translate(500 150) rotate(180)">
      <ellipse cx="0" cy="0" rx="50" ry="25" style="stroke: none; fill: #b22222;"/>
      <g class="prepare-block">
        <line x1="-37.5" y1="-25" x2="-22.5" y2="-25" style="fill: none; stroke: #b22222; stroke-width: 12.5; stroke-linecap: round; stroke-linejoin: round;"/>
        <line x1="22.5" y1="-25" x2="37.5" y2="-25" style="fill: none; stroke: #b22222; stroke-width: 12.5; stroke-linecap: round; stroke-linejoin: round;"/>
      </g>
      <g class="block">
        <line x1="-41" y1="-25" x2="41" y2="-25" style="fill: none; stroke: #b22222; stroke-width: 12.5; stroke-linecap: round; stroke-linejoin: round;"/>
      </g>
      <g class="prepare-defense">
        <line x1="-37.5" y1="0" x2="-62.5" y2="-25" style="fill: none; stroke: #b22222; stroke-width: 17; stroke-linecap: round; stroke-linejoin: round;"/>
        <line x1="-62.5" y1="-25" x2="-62.5" y2="-50" style="fill: none; stroke: #b22222; stroke-width: 17; stroke-linecap: round; stroke-linejoin: round;"/>
        <line x1="37.5" y1="0" x2="62.5" y2="-25" style="fill: none; stroke: #b22222; stroke-width: 17; stroke-linecap: round; stroke-linejoin: round;"/>
        <line x1="62.5" y1="-25" x2="62.5" y2="-50" style="fill: none; stroke: #b22222; stroke-width: 17; stroke-linecap: round; stroke-linejoin: round;"/>
      </g>
      <g class="defense">
        <line x1="-41" y1="0" x2="0" y2="-75" style="fill: none; stroke: #b22222; stroke-width: 17; stroke-linecap: round; stroke-linejoin: round;"/>
        <line x1="41" y1="0" x2="0" y2="-75" style="fill: none; stroke: #b22222; stroke-width: 17; stroke-linecap: round; stroke-linejoin: round;"/>
      </g>
      <g class="attack">
        <line x1="37.5" y1="0" x2="37.5" y2="-50" style="fill: none; stroke: #b22222; stroke-width: 17; stroke-linecap: round; stroke-linejoin: round;"/>
      </g>
      <g class="attack-left">
        <line x1="-37.5" y1="0" x2="-37.5" y2="-50" style="fill: none; stroke: #b22222; stroke-width: 17; stroke-linecap: round; stroke-linejoin: round;"/>
      </g>
      <g class="set">
        <line x1="-37.5" y1="0" x2="-20" y2="-25" style="fill: none; stroke: #b22222; stroke-width: 17; stroke-linecap: round; stroke-linejoin: round;"/>
        <line x1="37.5" y1="0" x2="20" y2="-25" style="fill: none; stroke: #b22222; stroke-width: 17; stroke-linecap: round; stroke-linejoin: round;"/>
      </g>
      <text x="0" y="0" dy="0.35em" transform="rotate(180)" style="stroke: none; font-family: Arial; fill: #ffff00; font-size: 45px; text-anchor: middle;">T</text>
    </g>
    <g class="player prepare-defense" transform="translate(675 450) rotate(-20)">
      <ellipse cx="0" cy="0" rx="50" ry="25" style="stroke: none; fill: #b22222;"/>
      <g class="prepare-block">
        <line x1="-37.5" y1="-25" x2="-22.5" y2="-25" style="fill: none; stroke: #b22222; stroke-width: 12.5; stroke-linecap: round; stroke-linejoin: round;"/>
        <line x1="22.5" y1="-25" x2="37.5" y2="-25" style="fill: none; stroke: #b22222; stroke-width: 12.5; stroke-linecap: round; stroke-linejoin: round;"/>
      </g>
      <g class="block">
        <line x1="-41" y1="-25" x2="41" y2="-25" style="fill: none; stroke: #b22222; stroke-width: 12.5; stroke-linecap: round; stroke-linejoin: round;"/>
      </g>
      <g class="prepare-defense">
        <line x1="-37.5" y1="0" x2="-62.5" y2="-25" style="fill: none; stroke: #b22222; stroke-width: 17; stroke-linecap: round; stroke-linejoin: round;"/>
        <line x1="-62.5" y1="-25" x2="-62.5" y2="-50" style="fill: none; stroke: #b22222; stroke-width: 17; stroke-linecap: round; stroke-linejoin: round;"/>
        <line x1="37.5" y1="0" x2="62.5" y2="-25" style="fill: none; stroke: #b22222; stroke-width: 17; stroke-linecap: round; stroke-linejoin: round;"/>
        <line x1="62.5" y1="-25" x2="62.5" y2="-50" style="fill: none; stroke: #b22222; stroke-width: 17; stroke-linecap: round; stroke-linejoin: round;"/>
      </g>
      <g class="defense">
        <line x1="-41" y1="0" x2="0" y2="-75" style="fill: none; stroke: #b22222; stroke-width: 17; stroke-linecap: round; stroke-linejoin: round;"/>
        <line x1="41" y1="0" x2="0" y2="-75" style="fill: none; stroke: #b22222; stroke-width: 17; stroke-linecap: round; stroke-linejoin: round;"/>
      </g>
      <g class="attack">
        <line x1="37.5" y1="0" x2="37.5" y2="-50" style="fill: none; stroke: #b22222; stroke-width: 17; stroke-linecap: round; stroke-linejoin: round;"/>
      </g>
      <g class="attack-left">
        <line x1="-37.5" y1="0" x2="-37.5" y2="-50" style="fill: none; stroke: #b22222; stroke-width: 17; stroke-linecap: round; stroke-linejoin: round;"/>
      </g>
      <g class="set">
        <line x1="-37.5" y1="0" x2="-20" y2="-25" style="fill: none; stroke: #b22222; stroke-width: 17; stroke-linecap: round; stroke-linejoin: round;"/>
        <line x1="37.5" y1="0" x2="20" y2="-25" style="fill: none; stroke: #b22222; stroke-width: 17; stroke-linecap: round; stroke-linejoin: round;"/>
      </g>
      <text x="0" y="0" dy="0.35em" style="stroke: none; font-family: Arial; fill: #ffff00; font-size: 45px; text-anchor: middle;">2</text>
    </g>
    <g class="move">
      <g transform="translate(527 684)">
        <line x1="0" y1="0" x2="123" y2="-164" style="stroke: #000000; stroke-width: 1; stroke-linecap: round; stroke-linejoin: round; stroke-dasharray: 2 4;"/>
        <polyline points="96.889,-152.333 123,-164 119.111,-135.667" style="stroke: #000000; stroke-width: 1; stroke-linecap: round; stroke-linejoin: round; stroke-dasharray: 2 4; fill: none;"/>
      </g>
    </g>
    <ellipse cx="0" cy="0" rx="15" ry="15" id="ellipse_2" transform="translate(500 720)" style="stroke: none; fill: #ffffff;"/>
    <g class="move">
      <g transform="translate(473 684)">
        <line x1="0" y1="0" x2="-123" y2="-164" style="stroke: #000000; stroke-width: 1; stroke-linecap: round; stroke-linejoin: round; stroke-dasharray: 2 4;"/>
        <polyline points="-119.111,-135.667 -123,-164 -96.889,-152.333" style="stroke: #000000; stroke-width: 1; stroke-linecap: round; stroke-linejoin: round; stroke-dasharray: 2 4; fill: none;"/>
      </g>
    </g>
    <ellipse cx="0" cy="0" rx="15" ry="15" id="ellipse_3" transform="translate(500 720)" style="stroke: none; fill: #ffffff;"/>
    <g class="player" transform="translate(500 720)">
      <ellipse cx="0" cy="0" rx="50" ry="25" style="stroke: none; fill: #b22222;"/>
      <g class="prepare-block">
        <line x1="-37.5" y1="-25" x2="-22.5" y2="-25" style="fill: none; stroke: #b22222; stroke-width: 12.5; stroke-linecap: round; stroke-linejoin: round;"/>
        <line x1="22.5" y1="-25" x2="37.5" y2="-25" style="fill: none; stroke: #b22222; stroke-width: 12.5; stroke-linecap: round; stroke-linejoin: round;"/>
      </g>
      <g class="block">
        <line x1="-41" y1="-25" x2="41" y2="-25" style="fill: none; stroke: #b22222; stroke-width: 12.5; stroke-linecap: round; stroke-linejoin: round;"/>
      </g>
      <g class="prepare-defense">
        <line x1="-37.5" y1="0" x2="-62.5" y2="-25" style="fill: none; stroke: #b22222; stroke-width: 17; stroke-linecap: round; stroke-linejoin: round;"/>
        <line x1="-62.5" y1="-25" x2="-62.5" y2="-50" style="fill: none; stroke: #b22222; stroke-width: 17; stroke-linecap: round; stroke-linejoin: round;"/>
        <line x1="37.5" y1="0" x2="62.5" y2="-25" style="fill: none; stroke: #b22222; stroke-width: 17; stroke-linecap: round; stroke-linejoin: round;"/>
        <line x1="62.5" y1="-25" x2="62.5" y2="-50" style="fill: none; stroke: #b22222; stroke-width: 17; stroke-linecap: round; stroke-linejoin: round;"/>
      </g>
      <g class="defense">
        <line x1="-41" y1="0" x2="0" y2="-75" style="fill: none; stroke: #b22222; stroke-width: 17; stroke-linecap: round; stroke-linejoin: round;"/>
        <line x1="41" y1="0" x2="0" y2="-75" style="fill: none; stroke: #b22222; stroke-width: 17; stroke-linecap: round; stroke-linejoin: round;"/>
      </g>
      <g class="attack">
        <line x1="37.5" y1="0" x2="37.5" y2="-50" style="fill: none; stroke: #b22222; stroke-width: 17; stroke-linecap: round; stroke-linejoin: round;"/>
      </g>
      <g class="attack-left">
        <line x1="-37.5" y1="0" x2="-37.5" y2="-50" style="fill: none; stroke: #b22222; stroke-width: 17; stroke-linecap: round; stroke-linejoin: round;"/>
      </g>
      <g class="set">
        <line x1="-37.5" y1="0" x2="-20" y2="-25" style="fill: none; stroke: #b22222; stroke-width: 17; stroke-linecap: round; stroke-linejoin: round;"/>
        <line x1="37.5" y1="0" x2="20" y2="-25" style="fill: none; stroke: #b22222; stroke-width: 17; stroke-linecap: round; stroke-linejoin: round;"/>
      </g>
    </g>
    <g class="player" transform="translate(500 795)">
      <ellipse cx="0" cy="0" rx="50" ry="25" style="stroke: none; fill: #b22222;"/>
      <g class="prepare-block">
        <line x1="-37.5" y1="-25" x2="-22.5" y2="-25" style="fill: none; stroke: #b22222; stroke-width: 12.5; stroke-linecap: round; stroke-linejoin: round;"/>
        <line x1="22.5" y1="-25" x2="37.5" y2="-25" style="fill: none; stroke: #b22222; stroke-width: 12.5; stroke-linecap: round; stroke-linejoin: round;"/>
      </g>
      <g class="block">
        <line x1="-41" y1="-25" x2="41" y2="-25" style="fill: none; stroke: #b22222; stroke-width: 12.5; stroke-linecap: round; stroke-linejoin: round;"/>
      </g>
      <g class="prepare-defense">
        <line x1="-37.5" y1="0" x2="-62.5" y2="-25" style="fill: none; stroke: #b22222; stroke-width: 17; stroke-linecap: round; stroke-linejoin: round;"/>
        <line x1="-62.5" y1="-25" x2="-62.5" y2="-50" style="fill: none; stroke: #b22222; stroke-width: 17; stroke-linecap: round; stroke-linejoin: round;"/>
        <line x1="37.5" y1="0" x2="62.5" y2="-25" style="fill: none; stroke: #b22222; stroke-width: 17; stroke-linecap: round; stroke-linejoin: round;"/>
        <line x1="62.5" y1="-25" x2="62.5" y2="-50" style="fill: none; stroke: #b22222; stroke-width: 17; stroke-linecap: round; stroke-linejoin: round;"/>
      </g>
      <g class="defense">
        <line x1="-41" y1="0" x2="0" y2="-75" style="fill: none; stroke: #b22222; stroke-width: 17; stroke-linecap: round; stroke-linejoin: round;"/>
        <line x1="41" y1="0" x2="0" y2="-75" style="fill: none; stroke: #b22222; stroke-width: 17; stroke-linecap: round; stroke-linejoin: round;"/>
      </g>
      <g class="attack">
        <line x1="37.5" y1="0" x2="37.5" y2="-50" style="fill: none; stroke: #b22222; stroke-width: 17; stroke-linecap: round; stroke-linejoin: round;"/>
      </g>
      <g class="attack-left">
        <line x1="-37.5" y1="0" x2="-37.5" y2="-50" style="fill: none; stroke: #b22222; stroke-width: 17; stroke-linecap: round; stroke-linejoin: round;"/>
      </g>
      <g class="set">
        <line x1="-37.5" y1="0" x2="-20" y2="-25" style="fill: none; stroke: #b22222; stroke-width: 17; stroke-linecap: round; stroke-linejoin: round;"/>
        <line x1="37.5" y1="0" x2="20" y2="-25" style="fill: none; stroke: #b22222; stroke-width: 17; stroke-linecap: round; stroke-linejoin: round;"/>
      </g>
    </g>
    <g class="player" transform="translate(500 870)">
      <ellipse cx="0" cy="0" rx="50" ry="25" style="stroke: none; fill: #b22222;"/>
      <g class="prepare-block">
        <line x1="-37.5" y1="-25" x2="-22.5" y2="-25" style="fill: none; stroke: #b22222; stroke-width: 12.5; stroke-linecap: round; stroke-linejoin: round;"/>
        <line x1="22.5" y1="-25" x2="37.5" y2="-25" style="fill: none; stroke: #b22222; stroke-width: 12.5; stroke-linecap: round; stroke-linejoin: round;"/>
      </g>
      <g class="block">
        <line x1="-41" y1="-25" x2="41" y2="-25" style="fill: none; stroke: #b22222; stroke-width: 12.5; stroke-linecap: round; stroke-linejoin: round;"/>
      </g>
      <g class="prepare-defense">
        <line x1="-37.5" y1="0" x2="-62.5" y2="-25" style="fill: none; stroke: #b22222; stroke-width: 17; stroke-linecap: round; stroke-linejoin: round;"/>
        <line x1="-62.5" y1="-25" x2="-62.5" y2="-50" style="fill: none; stroke: #b22222; stroke-width: 17; stroke-linecap: round; stroke-linejoin: round;"/>
        <line x1="37.5" y1="0" x2="62.5" y2="-25" style="fill: none; stroke: #b22222; stroke-width: 17; stroke-linecap: round; stroke-linejoin: round;"/>
        <line x1="62.5" y1="-25" x2="62.5" y2="-50" style="fill: none; stroke: #b22222; stroke-width: 17; stroke-linecap: round; stroke-linejoin: round;"/>
      </g>
      <g class="defense">
        <line x1="-41" y1="0" x2="0" y2="-75" style="fill: none; stroke: #b22222; stroke-width: 17; stroke-linecap: round; stroke-linejoin: round;"/>
        <line x1="41" y1="0" x2="0" y2="-75" style="fill: none; stroke: #b22222; stroke-width: 17; stroke-linecap: round; stroke-linejoin: round;"/>
      </g>
      <g class="attack">
        <line x1="37.5" y1="0" x2="37.5" y2="-50" style="fill: none; stroke: #b22222; stroke-width: 17; stroke-linecap: round; stroke-linejoin: round;"/>
      </g>
      <g class="attack-left">
        <line x1="-37.5" y1="0" x2="-37.5" y2="-50" style="fill: none; stroke: #b22222; stroke-width: 17; stroke-linecap: round; stroke-linejoin: round;"/>
      </g>
      <g class="set">
        <line x1="-37.5" y1="0" x2="-20" y2="-25" style="fill: none; stroke: #b22222; stroke-width: 17; stroke-linecap: round; stroke-linejoin: round;"/>
        <line x1="37.5" y1="0" x2="20" y2="-25" style="fill: none; stroke: #b22222; stroke-width: 17; stroke-linecap: round; stroke-linejoin: round;"/>
      </g>
    </g>
  </g>
  <style>
g.player > g {
  display: none;
}
g.player.attack > g.attack {
  display: block;
}
g.player.attack-left > g.attack-left {
  display: block;
}
g.player.prepare-block > g.prepare-block {
  display: block;
}
g.player.block > g.block {
  display: block;
}
g.player.prepare-defense > g.prepare-defense {
  display: block;
}
g.player.defense > g.defense {
  display: block;
}
g.player.set > g.set {
  display: block;
}

  </style>
<script>//<![CDATA[
(function(){
/**
 * Handles the context menu trigger to block it.
 * @param {Event} event The event data.
 * @returns {Boolean} true
 */
function onContextMenu(event) {
  event.preventDefault();
  return true;
}

// set a context menu handler
document.addEventListener('contextmenu', onContextMenu);
}());
//]]></script>
</svg>

